<svg xmlns="http://www.w3.org/2000/svg" viewBox="0 0 128 128" width="128" height="128">
  <rect width="128" height="128" rx="24" fill="#0a0e14"/>
  <g transform="translate(8,8) scale(2)">
    <rect x="12" y="24" width="32" height="24" rx="1" stroke="#3fb950" stroke-width="1" opacity="0.65"/>
    <rect x="12" y="18" width="7" height="6" fill="rgba(63,185,80,0.15)" stroke="#3fb950" stroke-width="0.8" opacity="0.6"/>
    <rect x="24.5" y="18" width="7" height="6" fill="rgba(63,185,80,0.15)" stroke="#3fb950" stroke-width="0.8" opacity="0.6"/>
    <rect x="37" y="18" width="7" height="6" fill="rgba(63,185,80,0.15)" stroke="#3fb950" stroke-width="0.8" opacity="0.6"/>
    <path d="M22 48 L22 38 C22 34 34 34 34 38 L34 48" stroke="#3fb950" stroke-width="0.9" opacity="0.65"/>
    <circle cx="28" cy="40" r="2" fill="#3fb950" opacity="0.5"/>
    <line x1="28" y1="18" x2="28" y2="6" stroke="#3fb950" stroke-width="0.8" opacity="0.55"/>
    <path d="M28 6 L38 10 L28 14" fill="#3fb950" opacity="0.2" stroke="#3fb950" stroke-width="0.6"/>
    <rect x="16" y="30" width="4" height="5" rx="2" stroke="#3fb950" stroke-width="0.7" opacity="0.4" fill="rgba(63,185,80,0.08)"/>
    <rect x="36" y="30" width="4" height="5" rx="2" stroke="#3fb950" stroke-width="0.7" opacity="0.4" fill="rgba(63,185,80,0.08)"/>
  </g>
</svg>
