<svg xmlns="http://www.w3.org/2000/svg" width="960" height="620" viewBox="0 0 960 620" role="img" aria-label="Helm Suite Infrastructure Dashboard">
  <defs>
    <linearGradient id="bg" x1="0%" y1="0%" x2="0%" y2="100%">
      <stop offset="0%" stop-color="#0d1117"/>
      <stop offset="100%" stop-color="#010409"/>
    </linearGradient>
  </defs>
  <rect width="960" height="620" fill="url(#bg)"/>

  <!-- Browser chrome -->
  <rect x="24" y="16" width="912" height="588" rx="12" fill="#161b22" stroke="#30363d" stroke-width="1"/>
  <rect x="24" y="16" width="912" height="36" rx="12" fill="#1c2128"/>
  <rect x="24" y="40" width="912" height="12" fill="#1c2128"/>
  <circle cx="48" cy="34" r="6" fill="#f85149" opacity="0.8"/>
  <circle cx="68" cy="34" r="6" fill="#d29922" opacity="0.8"/>
  <circle cx="88" cy="34" r="6" fill="#3fb950" opacity="0.8"/>
  <rect x="200" y="26" width="300" height="18" rx="4" fill="#0d1117"/>
  <text x="220" y="39" font-family="system-ui, -apple-system, sans-serif" font-size="10" fill="#8b949e">home.example.internal</text>

  <!-- Header -->
  <rect x="24" y="52" width="912" height="48" fill="#161b22"/>
  <line x1="24" y1="100" x2="936" y2="100" stroke="#30363d" stroke-width="1"/>
  <rect x="48" y="64" width="28" height="28" rx="6" fill="#f0883e" opacity="0.15"/>
  <text x="54" y="84" font-family="system-ui, sans-serif" font-size="16" font-weight="700" fill="#f0883e">H</text>
  <text x="86" y="78" font-family="system-ui, sans-serif" font-size="15" font-weight="600" fill="#e6edf3">Helm Suite</text>
  <text x="86" y="92" font-family="system-ui, sans-serif" font-size="10" fill="#8b949e">Personal cloud infrastructure</text>
  <rect x="780" y="68" width="140" height="24" rx="12" fill="#238636" opacity="0.9"/>
  <text x="800" y="84" font-family="system-ui, sans-serif" font-size="11" font-weight="600" fill="#ffffff">All Systems Up</text>

  <!-- Service cards row 1 -->
  <rect x="40" y="116" width="210" height="110" rx="10" fill="#0d1117" stroke="#30363d" stroke-width="1"/>
  <circle cx="60" cy="138" r="5" fill="#3fb950"/>
  <text x="72" y="142" font-family="system-ui, sans-serif" font-size="12" font-weight="600" fill="#e6edf3">Immich Photos</text>
  <text x="60" y="164" font-family="system-ui, sans-serif" font-size="11" fill="#8b949e">Google Photos replacement</text>
  <text x="60" y="186" font-family="JetBrains Mono, monospace" font-size="10" fill="#484f58">photos.example.internal</text>
  <text x="60" y="206" font-family="JetBrains Mono, monospace" font-size="10" fill="#3fb950">47,283 photos  |  312 GB</text>

  <rect x="266" y="116" width="210" height="110" rx="10" fill="#0d1117" stroke="#30363d" stroke-width="1"/>
  <circle cx="286" cy="138" r="5" fill="#3fb950"/>
  <text x="298" y="142" font-family="system-ui, sans-serif" font-size="12" font-weight="600" fill="#e6edf3">Finance Dashboard</text>
  <text x="286" y="164" font-family="system-ui, sans-serif" font-size="11" fill="#8b949e">Net worth &amp; spending tracker</text>
  <text x="286" y="186" font-family="JetBrains Mono, monospace" font-size="10" fill="#484f58">money.example.internal</text>
  <text x="286" y="206" font-family="JetBrains Mono, monospace" font-size="10" fill="#3fb950">FastAPI + SQLite</text>

  <rect x="492" y="116" width="210" height="110" rx="10" fill="#0d1117" stroke="#30363d" stroke-width="1"/>
  <circle cx="512" cy="138" r="5" fill="#3fb950"/>
  <text x="524" y="142" font-family="system-ui, sans-serif" font-size="12" font-weight="600" fill="#e6edf3">Ollama AI</text>
  <text x="512" y="164" font-family="system-ui, sans-serif" font-size="11" fill="#8b949e">Local LLMs, zero cloud</text>
  <text x="512" y="186" font-family="JetBrains Mono, monospace" font-size="10" fill="#484f58">ollama.example.internal</text>
  <text x="512" y="206" font-family="JetBrains Mono, monospace" font-size="10" fill="#3fb950">3 models loaded</text>

  <rect x="718" y="116" width="218" height="110" rx="10" fill="#0d1117" stroke="#30363d" stroke-width="1"/>
  <circle cx="738" cy="138" r="5" fill="#3fb950"/>
  <text x="750" y="142" font-family="system-ui, sans-serif" font-size="12" font-weight="600" fill="#e6edf3">Authelia SSO</text>
  <text x="738" y="164" font-family="system-ui, sans-serif" font-size="11" fill="#8b949e">Auth gateway + 2FA</text>
  <text x="738" y="186" font-family="JetBrains Mono, monospace" font-size="10" fill="#484f58">auth.example.internal</text>
  <text x="738" y="206" font-family="JetBrains Mono, monospace" font-size="10" fill="#3fb950">4 protected routes</text>

  <!-- Network section -->
  <rect x="40" y="240" width="450" height="180" rx="10" fill="#0d1117" stroke="#30363d" stroke-width="1"/>
  <text x="60" y="268" font-family="system-ui, sans-serif" font-size="13" font-weight="600" fill="#e6edf3">Network &amp; Security</text>

  <text x="60" y="296" font-family="system-ui, sans-serif" font-size="11" fill="#8b949e">Tailscale mesh</text>
  <rect x="240" y="284" width="60" height="18" rx="9" fill="#238636" opacity="0.2"/>
  <text x="252" y="297" font-family="system-ui, sans-serif" font-size="9" font-weight="600" fill="#3fb950">active</text>

  <text x="60" y="320" font-family="system-ui, sans-serif" font-size="11" fill="#8b949e">Caddy reverse proxy</text>
  <rect x="240" y="308" width="60" height="18" rx="9" fill="#238636" opacity="0.2"/>
  <text x="252" y="321" font-family="system-ui, sans-serif" font-size="9" font-weight="600" fill="#3fb950">active</text>

  <text x="60" y="344" font-family="system-ui, sans-serif" font-size="11" fill="#8b949e">Public exposure</text>
  <rect x="240" y="332" width="60" height="18" rx="9" fill="#238636" opacity="0.2"/>
  <text x="257" y="345" font-family="system-ui, sans-serif" font-size="9" font-weight="600" fill="#3fb950">none</text>

  <text x="60" y="368" font-family="system-ui, sans-serif" font-size="11" fill="#8b949e">TLS certificates</text>
  <rect x="240" y="356" width="60" height="18" rx="9" fill="#238636" opacity="0.2"/>
  <text x="252" y="369" font-family="system-ui, sans-serif" font-size="9" font-weight="600" fill="#3fb950">valid</text>

  <text x="60" y="392" font-family="system-ui, sans-serif" font-size="11" fill="#8b949e">Connected devices</text>
  <text x="240" y="392" font-family="JetBrains Mono, monospace" font-size="11" fill="#e6edf3">4 (desktop, phone, NAS, laptop)</text>

  <text x="60" y="410" font-family="system-ui, sans-serif" font-size="9" fill="#484f58">Zero public ports. All access via Tailscale VPN mesh.</text>

  <!-- Storage section -->
  <rect x="506" y="240" width="430" height="180" rx="10" fill="#0d1117" stroke="#30363d" stroke-width="1"/>
  <text x="526" y="268" font-family="system-ui, sans-serif" font-size="13" font-weight="600" fill="#e6edf3">Storage &amp; Backups</text>

  <text x="526" y="296" font-family="system-ui, sans-serif" font-size="11" fill="#8b949e">NAS (Synology)</text>
  <text x="860" y="296" font-family="JetBrains Mono, monospace" font-size="11" fill="#e6edf3" text-anchor="end">1.2 TB / 4 TB</text>

  <!-- Storage bar -->
  <rect x="526" y="306" width="380" height="8" rx="4" fill="#21262d"/>
  <rect x="526" y="306" width="114" height="8" rx="4" fill="#3fb950"/>

  <text x="526" y="336" font-family="system-ui, sans-serif" font-size="11" fill="#8b949e">Photos library</text>
  <text x="860" y="336" font-family="JetBrains Mono, monospace" font-size="11" fill="#e6edf3" text-anchor="end">312 GB</text>

  <text x="526" y="360" font-family="system-ui, sans-serif" font-size="11" fill="#8b949e">Databases</text>
  <text x="860" y="360" font-family="JetBrains Mono, monospace" font-size="11" fill="#e6edf3" text-anchor="end">2.4 GB</text>

  <text x="526" y="384" font-family="system-ui, sans-serif" font-size="11" fill="#8b949e">Backup snapshots</text>
  <text x="860" y="384" font-family="JetBrains Mono, monospace" font-size="11" fill="#e6edf3" text-anchor="end">48 snapshots</text>

  <text x="526" y="408" font-family="system-ui, sans-serif" font-size="11" fill="#8b949e">Last backup</text>
  <text x="860" y="408" font-family="JetBrains Mono, monospace" font-size="11" fill="#3fb950" text-anchor="end">2 hours ago</text>

  <!-- Architecture diagram -->
  <rect x="40" y="434" width="896" height="160" rx="10" fill="#0d1117" stroke="#30363d" stroke-width="1"/>
  <text x="60" y="462" font-family="system-ui, sans-serif" font-size="13" font-weight="600" fill="#e6edf3">Architecture</text>

  <!-- Devices -->
  <rect x="60" y="478" width="80" height="28" rx="6" fill="#1f6feb" opacity="0.1" stroke="#1f6feb" stroke-width="0.5"/>
  <text x="76" y="496" font-family="system-ui, sans-serif" font-size="9" fill="#58a6ff">Desktop</text>
  <rect x="60" y="512" width="80" height="28" rx="6" fill="#1f6feb" opacity="0.1" stroke="#1f6feb" stroke-width="0.5"/>
  <text x="82" y="530" font-family="system-ui, sans-serif" font-size="9" fill="#58a6ff">Phone</text>
  <rect x="60" y="546" width="80" height="28" rx="6" fill="#1f6feb" opacity="0.1" stroke="#1f6feb" stroke-width="0.5"/>
  <text x="76" y="564" font-family="system-ui, sans-serif" font-size="9" fill="#58a6ff">Laptop</text>

  <!-- Arrow to Tailscale -->
  <line x1="150" y1="516" x2="200" y2="516" stroke="#30363d" stroke-width="1"/>
  <text x="160" y="510" font-family="system-ui, sans-serif" font-size="8" fill="#484f58">WireGuard</text>

  <!-- Tailscale -->
  <rect x="210" y="496" width="100" height="40" rx="6" fill="#a371f7" opacity="0.1" stroke="#a371f7" stroke-width="0.5"/>
  <text x="228" y="520" font-family="system-ui, sans-serif" font-size="10" font-weight="600" fill="#a371f7">Tailscale</text>

  <!-- Arrow to Caddy -->
  <line x1="320" y1="516" x2="370" y2="516" stroke="#30363d" stroke-width="1"/>
  <text x="330" y="510" font-family="system-ui, sans-serif" font-size="8" fill="#484f58">private</text>

  <!-- Caddy -->
  <rect x="380" y="496" width="100" height="40" rx="6" fill="#3fb950" opacity="0.1" stroke="#3fb950" stroke-width="0.5"/>
  <text x="396" y="512" font-family="system-ui, sans-serif" font-size="10" font-weight="600" fill="#3fb950">Caddy</text>
  <text x="396" y="526" font-family="system-ui, sans-serif" font-size="8" fill="#8b949e">auto TLS</text>

  <!-- Arrow to Authelia -->
  <line x1="490" y1="516" x2="540" y2="516" stroke="#30363d" stroke-width="1"/>

  <!-- Authelia -->
  <rect x="550" y="496" width="100" height="40" rx="6" fill="#d29922" opacity="0.1" stroke="#d29922" stroke-width="0.5"/>
  <text x="564" y="512" font-family="system-ui, sans-serif" font-size="10" font-weight="600" fill="#d29922">Authelia</text>
  <text x="570" y="526" font-family="system-ui, sans-serif" font-size="8" fill="#8b949e">SSO + 2FA</text>

  <!-- Arrow to services -->
  <line x1="660" y1="516" x2="710" y2="496" stroke="#30363d" stroke-width="1"/>
  <line x1="660" y1="516" x2="710" y2="516" stroke="#30363d" stroke-width="1"/>
  <line x1="660" y1="516" x2="710" y2="536" stroke="#30363d" stroke-width="1"/>

  <!-- Services -->
  <rect x="720" y="478" width="80" height="28" rx="4" fill="#161b22" stroke="#30363d" stroke-width="0.5"/>
  <text x="736" y="496" font-family="system-ui, sans-serif" font-size="9" fill="#e6edf3">Photos</text>

  <rect x="720" y="512" width="80" height="28" rx="4" fill="#161b22" stroke="#30363d" stroke-width="0.5"/>
  <text x="736" y="530" font-family="system-ui, sans-serif" font-size="9" fill="#e6edf3">Finance</text>

  <rect x="720" y="546" width="80" height="28" rx="4" fill="#161b22" stroke="#30363d" stroke-width="0.5"/>
  <text x="736" y="564" font-family="system-ui, sans-serif" font-size="9" fill="#e6edf3">Ollama AI</text>

  <!-- Arrow to NAS -->
  <line x1="810" y1="526" x2="856" y2="526" stroke="#30363d" stroke-width="1"/>
  <rect x="866" y="498" width="60" height="56" rx="6" fill="#f0883e" opacity="0.1" stroke="#f0883e" stroke-width="0.5"/>
  <text x="880" y="522" font-family="system-ui, sans-serif" font-size="10" font-weight="600" fill="#f0883e">NAS</text>
  <text x="876" y="540" font-family="system-ui, sans-serif" font-size="8" fill="#8b949e">SQLite</text>
</svg>
